# xmcd
#
# Track frame offsets: 
#        150
#        19680
#        32900
#        52700
#        71387
#        91085
#        107315
#        120185
#        135862
#        152475
#        170925
#        187837
#        206099
#        223275
#        234160
#
# Disc length: 3368 seconds
#
# Revision: 2
# Processed by: cddbd v1.5.2PL0 Copyright (c) Steve Scherf et al.
# Submitted via: ExactAudioCopy v0.99pb4
#
DISCID=b30d260f
DTITLE=Jon Tiven Group - Blüe Guru
DYEAR=1997
DGENRE=Blues
TTITLE0=He Don't Know
TTITLE1=Blüe Guru
TTITLE2=Second Hand Paradise
TTITLE3=Midnight Again
TTITLE4=River Of No Return
TTITLE5=Let's Think About It
TTITLE6=Inside Information
TTITLE7=Tricks Of The Trade
TTITLE8=Fool's Gold
TTITLE9=Laugh
TTITLE10=I Smell Smoke
TTITLE11=Had To Have It
TTITLE12=Better Him Than Me
TTITLE13=The Beginning Of The Blues
TTITLE14=The End Of The Blües
EXTD=
EXTT0=
EXTT1=
EXTT2=
EXTT3=
EXTT4=
EXTT5=
EXTT6=
EXTT7=
EXTT8=
EXTT9=
EXTT10=
EXTT11=
EXTT12=
EXTT13=
EXTT14=
PLAYORDER=
